<svg xmlns="http://www.w3.org/2000/svg" viewBox="0 0 137.39 240.2"><defs></defs><g id="Capa_2" data-name="Capa 2"><g id="Capa_2-2" data-name="Capa 2"><path d="M71.21 199.51c-.08-6.66 2.17-12.63 5.37-18.3a111.26 111.26 0 0 1 14.62-20q6.9-7.62 14.08-15a47 47 0 0 1 11.88-8.95c1.31-.69 1.35-1 .25-2-6-5.45-12.83-8.62-20.92-8.63-4 0-7.67 1.4-11.36 2.72-3.9 1.39-7.75 3-11.67 4.31A27.91 27.91 0 0 1 63 135.51a7 7 0 0 1-5.52-2.78c-1-1.29-1.89-2.66-2.76-4a13.55 13.55 0 0 0-6.53-5.51c-1.44-.58-2.89-1.15-4.37-1.64-9.5-3.15-11.28-12.76-9.15-19.46A8.76 8.76 0 0 1 44.81 96c10.43 1.61 20.23 5.29 29.92 9.33 6.6 2.75 13.24 5.34 20.06 7.49 4.27 1.35 8.64 2.63 12.41 5.18 3 2 5.73 4.3 8.58 6.47.91.7 1.83 1.39 2.73 2.1.45.36 1 .66 1.29 1.14 1 2 2.8 3.39 4.27 5 .31.35.64.68.91 1 1.37 1.92.87 3.49-1.26 4.36a14.92 14.92 0 0 0-2.39 1.37c-.81.51 1.13.24 1.52 1.3s-2.43 3.07-3.32 3.87a7 7 0 0 1-.67.55c-6 3.92-9.94 9.64-13.34 15.84-4.25 7.78-7 16.18-9.54 24.65-1.58 5.21-3.2 10.41-5.06 15.52a40.85 40.85 0 0 1-3.75 7.29 13.2 13.2 0 0 1-3.32 3.54c-3.22 2.4-6.95 1.75-9.47-1.44a16.19 16.19 0 0 1-3.16-8.79c-.07-.77-.01-1.5-.01-2.26ZM60.19 44.65a16.09 16.09 0 0 1 .39-1.9c.91-3 3-4 5.76-2.78A19.91 19.91 0 0 1 73 44.64c5.9 6.24 11.73 12.56 17.57 18.87a73.4 73.4 0 0 1 9 11.31 29.51 29.51 0 0 1 1.54 2.74 158.55 158.55 0 0 1 10.75 27.75 7.65 7.65 0 0 1 .34 2.06c0 1.61-1.14 2.18-2.45 1.25a6.36 6.36 0 0 1-1.57-1.62c-.89-1.36-1.73-2.76-2.5-4.19A50.6 50.6 0 0 0 97 90.62a27.12 27.12 0 0 0-9-6.12c-4-1.61-8-3.26-12-4.9a10.92 10.92 0 0 1-6.46-6.22q-2.25-5.79-4.42-11.62C64.4 59.85 63.8 57.89 63 56a34.57 34.57 0 0 1-2.81-11.35Z" class="cls-1"/><path d="M96.42 102.34C89.93 99 83.57 95.28 76.94 92.2c-9.85-4.58-20.34-7-31-8.41a79.54 79.54 0 0 0-21.13-.45 32.78 32.78 0 0 0-14.53 5.09C3.57 93 1 100.32 3.24 108.26c2 7 6 12 12.89 14.46 2.49.9 4.95 1.88 7.42 2.83 8.29 3.18 14.3 8.93 18.51 16.81a46.34 46.34 0 0 0 3.79 6.07c6.79 9 15.83 11.85 26.64 8.41a66.57 66.57 0 0 0 30.33-19.62c.36-.41.75-.79 1.13-1.16a1.38 1.38 0 0 1 2.11.19c.39.63.17 1.34-.66 2.23-2.18 2.33-4.32 4.72-6.69 6.84A66 66 0 0 1 71 160.39a25.71 25.71 0 0 1-27.8-11 56.15 56.15 0 0 1-3-5A33.48 33.48 0 0 0 21.77 128a73 73 0 0 1-10.67-4.5C1.31 118.12-3 103 2.27 93.09c2.67-5 7-8.13 12.1-10.2 7.48-3 15.3-3.47 23.22-3a122.31 122.31 0 0 1 59.26 19.42 8.88 8.88 0 0 1 2.26 1.86.67.67 0 0 1 .12.2 1.12 1.12 0 0 1-1.33 1.51 8.72 8.72 0 0 1-1.48-.54ZM64.34 74.56a1.14 1.14 0 0 1-1.78.14A5 5 0 0 1 62 74c-5.54-9.45-11.15-18.87-16.54-28.41-2.26-4-4.12-8.23-6-12.41a11.89 11.89 0 0 1-.77-3.77c-.41-4.79 2.24-8.25 7-8.37a31.68 31.68 0 0 1 9.31 1.3c7.09 2 13.48 5.62 19.68 9.6 15.93 10.23 27.46 24.35 35.47 41.61 4.39 9.47 7.51 19.4 10.49 29.38.08.28.16.53.22.75a1.19 1.19 0 0 1-2.21.86c-.07-.14-.13-.3-.19-.45-1.64-4.88-3.16-9.79-4.8-14.67-5.11-15.26-12.31-29.33-23.47-40.94-10.44-10.84-22.54-19-36.8-23.48a24 24 0 0 0-7.3-1c-4 .05-5.67 2.52-4.76 6.48 1.05 4.62 3.35 8.62 5.67 12.58 4.65 7.77 9.35 15.49 14 23.26 1.22 2.06 2.22 4.24 3.27 6.39a1.84 1.84 0 0 1 .07 1.85ZM57.83 166.62a1.25 1.25 0 0 1 2.17 1.26 44.49 44.49 0 0 0-3.83 22.45c1 14.28 5.82 26.94 15.88 37.2a33.72 33.72 0 0 0 13.45 8.63c6.2 2.07 10.44.69 14.34-4.66a42.41 42.41 0 0 0 7-16.71c2-9.74 3.85-19.53 5.75-29.31A100.8 100.8 0 0 1 119 164c.23-.52.41-1.09.69-1.59a1.32 1.32 0 0 1 2.34 1.2c-.32.82-.67 1.63-1 2.43-3.84 8.5-5.49 17.62-7.3 26.68-1.56 7.81-3 15.65-4.62 23.45a45.78 45.78 0 0 1-6.43 16 28.5 28.5 0 0 1-2.07 2.8c-4.13 4.89-9.19 6.3-15.22 4.3a38.29 38.29 0 0 1-19.08-14.15c-11.51-15.75-15.44-33.23-10.82-52.48a35.4 35.4 0 0 1 2.2-5.71c0-.07.07-.19.14-.31ZM124.85 109.26a2 2 0 0 1 3.88.48v.06a17.13 17.13 0 0 1-.05 3.72c-1.3 10.63-2.46 21.28-1.59 32 .34 4.13 1.31 8.2 2 12.3a82.47 82.47 0 0 1 1.47 16.37 6.22 6.22 0 0 1-1.15 3.87.79.79 0 0 1-1.34-.13 3.09 3.09 0 0 1-.39-1.05c-.21-1.85-.33-3.72-.4-5.58a43.4 43.4 0 0 0-1.66-10.13c-1.61-5.55-3.67-11.06-4.51-16.75-1.78-12-.22-23.72 3.7-35.13ZM136 .1a.91.91 0 0 1 1.29.6 1.16 1.16 0 0 1-.62 1.43c-4.84 3-6 8.3-6.3 14.32-.34 6.72 1.09 13.13 2.06 19.63 1.5 10 2.7 20 1.87 30.21-.48 5.93-1.09 11.85-1.91 17.72-.65 4.7-1.7 9.32-2.6 14a2.56 2.56 0 0 1-.29.66.74.74 0 0 1-1.4-.32 1.21 1.21 0 0 1 0-.19 18.94 18.94 0 0 1 .48-2.89c2.08-10.07 3.87-20.22 3.33-30.67-.35-6.88-1.29-13.72-2-20.57-.66-6.62-1.52-13.22-2-19.86a39.63 39.63 0 0 1 1.84-15.52c1.11-3.22 2.62-6.13 5.18-7.92A8.07 8.07 0 0 1 136 .1ZM122.42 88.72a.94.94 0 0 1-.52-1.09c2.28-8.94.65-17.4-1.47-25.83a132.46 132.46 0 0 1-4-21.37A55.55 55.55 0 0 1 117.86 23a1.21 1.21 0 0 1 0-.14 1 1 0 0 1 1.78.66.19.19 0 0 1 0 .08c-2.34 9.35-.91 18.44 1.41 27.56a114.57 114.57 0 0 1 3.35 16.66c.65 6.4 1.49 12.94-.41 19.34-.1.34-.23.68-.38 1.06a.91.91 0 0 1-1.2.51Z" class="cls-2"/></g></g>
  <style>
    .cls-1 {
      fill: #138bc1;
    }

    .cls-2 {
      fill: #000;
    }

    @media (prefers-color-scheme: dark) {
      .cls-2 {
        fill: #FFF;
      }
    }
  </style>
</svg>